<svg width="28" height="28" viewBox="0 0 28 28" fill="none" xmlns="http://www.w3.org/2000/svg">
<path d="M9.75758 12H5C4.44772 12 4 12.4477 4 13V24C4 24.5523 4.44772 25 5 25H22C22.5523 25 23 24.5523 23 24V13C23 12.4477 22.5523 12 22 12H17.2424" stroke="black" stroke-width="1.4" stroke-linecap="round"/>
<path d="M13.25 16C13.25 16.4142 13.5858 16.75 14 16.75C14.4142 16.75 14.75 16.4142 14.75 16L13.25 16ZM14.5303 2.46967C14.2374 2.17678 13.7626 2.17678 13.4697 2.46967L8.6967 7.24264C8.40381 7.53553 8.40381 8.01041 8.6967 8.3033C8.98959 8.59619 9.46447 8.59619 9.75736 8.3033L14 4.06066L18.2426 8.3033C18.5355 8.59619 19.0104 8.59619 19.3033 8.3033C19.5962 8.01041 19.5962 7.53553 19.3033 7.24264L14.5303 2.46967ZM14.75 16L14.75 3L13.25 3L13.25 16L14.75 16Z" fill="black"/>
</svg>
