<svg width="16" height="16" viewBox="0 0 16 16" fill="none" xmlns="http://www.w3.org/2000/svg">
<circle cx="8" cy="8" r="7.5" stroke="black"/>
<circle cx="8" cy="5" r="1" fill="#19191B"/>
<path d="M8.13178 7.00429H6V7.43374H7C7.8 7.43374 7 8.86686 6.5 9.58342C6.16667 10.1567 5.7 11.5611 6.5 12.593C7.5 13.8828 10 11.7331 10 11.3032C10 10.9592 9.66667 11.1599 9.5 11.3032C9.33333 11.4465 8.9 11.7331 8.5 11.7331C8.1 11.7331 8 11.4465 8 11.3032C8.16667 10.5868 9 8.95182 9 7.86416C9 7.38466 8.61128 7.00429 8.13178 7.00429Z" fill="#111015"/>
</svg>
