<svg width="28" height="28" viewBox="0 0 28 28" fill="none" xmlns="http://www.w3.org/2000/svg">
<path fill-rule="evenodd" clip-rule="evenodd" d="M16 21C11.5817 21 8 17.866 8 14C8 10.134 11.5817 7 16 7C20.4183 7 24 10.134 24 14C24 16.5296 22.4665 18.7458 20.1686 19.9758C20.4277 21.5183 21.2782 22.3194 21.8625 22.8698C21.9103 22.9148 21.9563 22.9581 22 23C19.285 23 17.8839 22.0446 16.7066 20.9731C16.4738 20.9909 16.2381 21 16 21Z" fill="white"/>
<path d="M20.1686 19.9758L19.6755 20.0586C19.6399 19.8469 19.7434 19.6362 19.9326 19.5349L20.1686 19.9758ZM21.8625 22.8698L22.2054 22.5059L22.2054 22.5059L21.8625 22.8698ZM22 23L22.3459 22.639C22.4933 22.7802 22.5401 22.9969 22.464 23.1864C22.3878 23.3759 22.2042 23.5 22 23.5V23ZM16.7066 20.9731L16.6684 20.4745C16.8058 20.464 16.9413 20.5106 17.0432 20.6033L16.7066 20.9731ZM8.5 14C8.5 17.5292 11.7931 20.5 16 20.5V21.5C11.3704 21.5 7.5 18.2028 7.5 14H8.5ZM16 7.5C11.7931 7.5 8.5 10.4708 8.5 14H7.5C7.5 9.79724 11.3704 6.5 16 6.5V7.5ZM23.5 14C23.5 10.4708 20.2069 7.5 16 7.5V6.5C20.6296 6.5 24.5 9.79724 24.5 14H23.5ZM19.9326 19.5349C22.0964 18.3768 23.5 16.3151 23.5 14H24.5C24.5 16.7441 22.8366 19.1149 20.4045 20.4166L19.9326 19.5349ZM20.6617 19.8929C20.8919 21.2632 21.6336 21.9672 22.2054 22.5059L21.5197 23.2338C20.9228 22.6715 19.9636 21.7734 19.6755 20.0586L20.6617 19.8929ZM22.2054 22.5059C22.2528 22.5505 22.3004 22.5953 22.3459 22.639L21.6541 23.361C21.6122 23.3209 21.5678 23.2791 21.5197 23.2338L22.2054 22.5059ZM22 23.5C20.5809 23.5 19.4814 23.2497 18.5732 22.8451C17.6673 22.4415 16.9773 21.8956 16.37 21.3428L17.0432 20.6033C17.6132 21.1221 18.2124 21.5896 18.9801 21.9316C19.7455 22.2726 20.7041 22.5 22 22.5V23.5ZM16 20.5C16.2254 20.5 16.4483 20.4914 16.6684 20.4745L16.7448 21.4716C16.4993 21.4904 16.2509 21.5 16 21.5V20.5Z" fill="#212025"/>
<path fill-rule="evenodd" clip-rule="evenodd" d="M12 20C16.9706 20 21 16.4183 21 12C21 7.58172 16.9706 4 12 4C7.02944 4 3 7.58172 3 12C3 14.8401 4.66491 17.3344 7.17449 18.7541C6.92793 20.4427 5.87406 21.2936 5.16036 21.8698C5.10465 21.9148 5.05102 21.9581 5 22C8.17302 22 9.80787 21.0413 11.1828 19.9675C11.452 19.989 11.7245 20 12 20Z" fill="white"/>
<path d="M7.17449 18.7541L7.66924 18.8263C7.69906 18.6221 7.60032 18.4205 7.42067 18.3189L7.17449 18.7541ZM5.16036 21.8698L4.84627 21.4808L4.84626 21.4808L5.16036 21.8698ZM5 22L4.68267 21.6136C4.51948 21.7476 4.45808 21.9697 4.52926 22.1685C4.60043 22.3673 4.78883 22.5 5 22.5V22ZM11.1828 19.9675L11.2227 19.4691C11.0978 19.4591 10.9738 19.4963 10.875 19.5734L11.1828 19.9675ZM20.5 12C20.5 16.0884 16.7514 19.5 12 19.5V20.5C17.1897 20.5 21.5 16.7482 21.5 12H20.5ZM12 4.5C16.7514 4.5 20.5 7.9116 20.5 12H21.5C21.5 7.25184 17.1897 3.5 12 3.5V4.5ZM3.5 12C3.5 7.9116 7.24859 4.5 12 4.5V3.5C6.81029 3.5 2.5 7.25184 2.5 12H3.5ZM7.42067 18.3189C5.0436 16.9742 3.5 14.6335 3.5 12H2.5C2.5 15.0466 4.28622 17.6947 6.9283 19.1893L7.42067 18.3189ZM6.67973 18.6819C6.46322 20.1647 5.55371 20.9096 4.84627 21.4808L5.47445 22.2589C6.19441 21.6776 7.39264 20.7207 7.66924 18.8263L6.67973 18.6819ZM4.84626 21.4808C4.7909 21.5255 4.73559 21.5701 4.68267 21.6136L5.31733 22.3864C5.36644 22.3461 5.4184 22.3041 5.47445 22.2589L4.84626 21.4808ZM5 22.5C6.63874 22.5 7.9024 22.2521 8.94436 21.8534C9.98599 21.4548 10.7828 20.9143 11.4906 20.3615L10.875 19.5734C10.2079 20.0944 9.49979 20.5702 8.587 20.9194C7.67456 21.2686 6.53428 21.5 5 21.5V22.5ZM12 19.5C11.7378 19.5 11.4786 19.4895 11.2227 19.4691L11.1429 20.4659C11.4253 20.4885 11.7112 20.5 12 20.5V19.5Z" fill="#212025"/>
</svg>
