<svg width="28" height="28" viewBox="0 0 28 28" fill="none" xmlns="http://www.w3.org/2000/svg">
<mask id="path-1-inside-1_42_4904" fill="white">
<path fill-rule="evenodd" clip-rule="evenodd" d="M4.61442 6.63331C6.76714 4.4554 10.2574 4.4554 12.4101 6.63331L14.0001 8.24187L15.5895 6.63383C17.7422 4.45591 21.2325 4.45591 23.3852 6.63383C25.5379 8.81174 25.5379 12.3428 23.3852 14.5208L14.0156 24L13.9793 23.9633L13.9638 23.979L4.61442 14.5202C2.4617 12.3423 2.4617 8.81123 4.61442 6.63331Z"/>
</mask>
<path d="M12.4101 6.63331L11.4855 7.54719L12.4101 6.63331ZM4.61442 6.63331L3.68985 5.71944L4.61442 6.63331ZM14.0001 8.24187L13.0755 9.15575L14.0001 10.0911L14.9246 9.15575L14.0001 8.24187ZM15.5895 6.63383L16.5141 7.5477V7.5477L15.5895 6.63383ZM23.3852 6.63383L24.3098 5.71995V5.71995L23.3852 6.63383ZM23.3852 14.5208L22.4606 13.6069L22.4606 13.6069L23.3852 14.5208ZM14.0156 24L13.091 24.9139L14.0156 25.8493L14.9402 24.9139L14.0156 24ZM13.9793 23.9633L14.9039 23.0494L13.9793 22.114L13.0547 23.0494L13.9793 23.9633ZM13.9638 23.979L13.0392 24.8929L13.9638 25.8283L14.8883 24.8929L13.9638 23.979ZM4.61442 14.5202L5.53899 13.6064L4.61442 14.5202ZM13.3347 5.71944C10.6731 3.02669 6.35145 3.02669 3.68985 5.71944L5.53899 7.54719C7.18284 5.88411 9.8417 5.88411 11.4855 7.54719L13.3347 5.71944ZM14.9246 7.328L13.3347 5.71944L11.4855 7.54719L13.0755 9.15575L14.9246 7.328ZM14.9246 9.15575L16.5141 7.5477L14.6649 5.71995L13.0755 7.328L14.9246 9.15575ZM16.5141 7.5477C18.1579 5.88462 20.8168 5.88462 22.4606 7.54771L24.3098 5.71995C21.6482 3.02721 17.3265 3.02721 14.6649 5.71995L16.5141 7.5477ZM22.4606 7.5477C24.1128 9.21919 24.1128 11.9354 22.4606 13.6069L24.3098 15.4346C26.9631 12.7503 26.9631 8.4043 24.3098 5.71995L22.4606 7.5477ZM22.4606 13.6069L13.0911 23.0861L14.9402 24.9139L24.3098 15.4346L22.4606 13.6069ZM14.9402 23.0861L14.9039 23.0494L13.0547 24.8771L13.091 24.9139L14.9402 23.0861ZM14.8883 24.8929L14.9039 24.8771L13.0547 23.0494L13.0392 23.0651L14.8883 24.8929ZM3.68985 15.4341L13.0392 24.8929L14.8883 23.0651L5.53899 13.6064L3.68985 15.4341ZM3.68985 5.71944C1.03655 8.40378 1.03655 12.7498 3.68985 15.4341L5.53899 13.6064C3.88684 11.9349 3.88684 9.21867 5.53899 7.54719L3.68985 5.71944Z" fill="#898A8F" mask="url(#path-1-inside-1_42_4904)"/>
</svg>
