<svg width="18" height="18" viewBox="0 0 18 18" fill="none" xmlns="http://www.w3.org/2000/svg">
<mask id="path-1-inside-1_117_18369" fill="white">
<path fill-rule="evenodd" clip-rule="evenodd" d="M14.9458 4.04139C13.5399 2.65287 11.2606 2.65287 9.85469 4.04139L8.96176 4.92331L8.1457 4.11731C6.73984 2.72879 4.4605 2.72879 3.05464 4.11731C1.64878 5.50583 1.64878 7.75706 3.05464 9.14558L3.8707 9.95158L3.8503 9.97173L8.94136 15L14.9458 9.06966C16.3516 7.68114 16.3516 5.42991 14.9458 4.04139Z"/>
</mask>
<path d="M9.85469 4.04139L9.15199 3.32991V3.32991L9.85469 4.04139ZM8.96176 4.92331L8.25905 5.63479L8.96176 6.32883L9.66447 5.63479L8.96176 4.92331ZM8.1457 4.11731L8.8484 3.40583V3.40583L8.1457 4.11731ZM3.05464 4.11731L2.35193 3.40583V3.40583L3.05464 4.11731ZM3.05464 9.14558L2.35193 9.85706L2.35193 9.85706L3.05464 9.14558ZM3.8707 9.95158L4.57341 10.6631L5.29377 9.95157L4.57341 9.2401L3.8707 9.95158ZM3.8503 9.97173L3.14759 9.26025L2.42723 9.97173L3.14759 10.6832L3.8503 9.97173ZM8.94136 15L8.23865 15.7115L8.94136 16.4055L9.64406 15.7115L8.94136 15ZM14.9458 9.06966L15.6485 9.78114V9.78114L14.9458 9.06966ZM10.5574 4.75287C11.5738 3.74904 13.2267 3.74904 14.243 4.75287L15.6485 3.32991C13.8531 1.5567 10.9473 1.5567 9.15199 3.32991L10.5574 4.75287ZM9.66447 5.63479L10.5574 4.75287L9.15199 3.32991L8.25905 4.21183L9.66447 5.63479ZM7.44299 4.82879L8.25905 5.63479L9.66447 4.21183L8.8484 3.40583L7.44299 4.82879ZM3.75734 4.82879C4.77371 3.82497 6.42663 3.82497 7.44299 4.82879L8.8484 3.40583C7.05305 1.63262 4.14729 1.63262 2.35193 3.40583L3.75734 4.82879ZM3.75734 8.4341C2.74788 7.43708 2.74788 5.82581 3.75734 4.82879L2.35193 3.40583C0.549685 5.18585 0.549679 8.07703 2.35193 9.85706L3.75734 8.4341ZM4.57341 9.2401L3.75734 8.4341L2.35193 9.85706L3.16799 10.6631L4.57341 9.2401ZM4.55301 10.6832L4.57341 10.6631L3.16799 9.2401L3.14759 9.26025L4.55301 10.6832ZM9.64406 14.2885L4.553 9.26025L3.14759 10.6832L8.23865 15.7115L9.64406 14.2885ZM14.243 8.35818L8.23865 14.2885L9.64406 15.7115L15.6485 9.78114L14.243 8.35818ZM14.243 4.75287C15.2525 5.74988 15.2525 7.36116 14.243 8.35818L15.6485 9.78114C17.4507 8.00112 17.4507 5.10993 15.6485 3.32991L14.243 4.75287Z" fill="#898A8F" mask="url(#path-1-inside-1_117_18369)"/>
</svg>
