<svg width="18" height="18" viewBox="0 0 18 18" fill="none" xmlns="http://www.w3.org/2000/svg">
<path fill-rule="evenodd" clip-rule="evenodd" d="M16 9C16 12.866 12.866 16 9 16C5.13401 16 2 12.866 2 9C2 5.13401 5.13401 2 9 2C12.866 2 16 5.13401 16 9ZM6.46967 6.46967C6.76256 6.17678 7.23744 6.17678 7.53033 6.46967L9.5 8.43934L11.4697 6.46967C11.7626 6.17678 12.2374 6.17678 12.5303 6.46967C12.8232 6.76256 12.8232 7.23744 12.5303 7.53033L10.5607 9.5L12.5303 11.4697C12.8232 11.7626 12.8232 12.2374 12.5303 12.5303C12.2374 12.8232 11.7626 12.8232 11.4697 12.5303L9.5 10.5607L7.53033 12.5303C7.23744 12.8232 6.76256 12.8232 6.46967 12.5303C6.17678 12.2374 6.17678 11.7626 6.46967 11.4697L8.43934 9.5L6.46967 7.53033C6.17678 7.23744 6.17678 6.76256 6.46967 6.46967Z" fill="#898A8F"/>
</svg>
