<svg width="28" height="28" viewBox="0 0 28 28" fill="none" xmlns="http://www.w3.org/2000/svg">
<path d="M10.1515 13H6C5.44771 13 5 13.4477 5 14V24C5 24.5523 5.44772 25 6 25H21C21.5523 25 22 24.5523 22 24V14C22 13.4477 21.5523 13 21 13H16.8485" stroke="white" stroke-width="1.4" stroke-linecap="round"/>
<path d="M13.25 16C13.25 16.4142 13.5858 16.75 14 16.75C14.4142 16.75 14.75 16.4142 14.75 16L13.25 16ZM14.5303 3.46967C14.2374 3.17678 13.7626 3.17678 13.4697 3.46967L8.6967 8.24264C8.40381 8.53553 8.40381 9.01041 8.6967 9.3033C8.98959 9.59619 9.46447 9.59619 9.75736 9.3033L14 5.06066L18.2426 9.3033C18.5355 9.59619 19.0104 9.59619 19.3033 9.3033C19.5962 9.01041 19.5962 8.53553 19.3033 8.24264L14.5303 3.46967ZM14.75 16L14.75 4L13.25 4L13.25 16L14.75 16Z" fill="white"/>
</svg>
