<svg width="26" height="26" viewBox="0 0 26 26" fill="none" xmlns="http://www.w3.org/2000/svg">
<circle cx="13" cy="13" r="12.5" fill="#FFEADD" stroke="white"/>
<path d="M7 19H9V21.5C9 21.7761 8.77614 22 8.5 22H7.5C7.22386 22 7 21.7761 7 21.5V19Z" fill="black"/>
<path d="M16 19H18V21.5C18 21.7761 17.7761 22 17.5 22H16.5C16.2239 22 16 21.7761 16 21.5V19Z" fill="black"/>
<mask id="path-4-outside-1_11_3720" maskUnits="userSpaceOnUse" x="4" y="3" width="17" height="18" fill="black">
<rect fill="white" x="4" y="3" width="17" height="18"/>
<path fill-rule="evenodd" clip-rule="evenodd" d="M9 5C9 4.44772 9.44772 4 10 4H15C15.5523 4 16 4.44772 16 5V9H18C19.1046 9 20 9.89543 20 11V18C20 19.1046 19.1046 20 18 20H7C5.89543 20 5 19.1046 5 18V11C5 9.89543 5.89543 9 7 9H9V5ZM15 9H10V5.5C10 5.22386 10.2239 5 10.5 5H14.5C14.7761 5 15 5.22386 15 5.5V9Z"/>
</mask>
<path fill-rule="evenodd" clip-rule="evenodd" d="M9 5C9 4.44772 9.44772 4 10 4H15C15.5523 4 16 4.44772 16 5V9H18C19.1046 9 20 9.89543 20 11V18C20 19.1046 19.1046 20 18 20H7C5.89543 20 5 19.1046 5 18V11C5 9.89543 5.89543 9 7 9H9V5ZM15 9H10V5.5C10 5.22386 10.2239 5 10.5 5H14.5C14.7761 5 15 5.22386 15 5.5V9Z" fill="#FD8725"/>
<path d="M16 9H15.8V9.2H16V9ZM9 9V9.2H9.2V9H9ZM10 9H9.8V9.2H10V9ZM15 9V9.2H15.2V9H15ZM10 3.8C9.33726 3.8 8.8 4.33726 8.8 5H9.2C9.2 4.55817 9.55817 4.2 10 4.2V3.8ZM15 3.8H10V4.2H15V3.8ZM16.2 5C16.2 4.33726 15.6627 3.8 15 3.8V4.2C15.4418 4.2 15.8 4.55817 15.8 5H16.2ZM16.2 9V5H15.8V9H16.2ZM16 9.2H18V8.8H16V9.2ZM18 9.2C18.9941 9.2 19.8 10.0059 19.8 11H20.2C20.2 9.78497 19.215 8.8 18 8.8V9.2ZM19.8 11V18H20.2V11H19.8ZM19.8 18C19.8 18.9941 18.9941 19.8 18 19.8V20.2C19.215 20.2 20.2 19.215 20.2 18H19.8ZM18 19.8H7V20.2H18V19.8ZM7 19.8C6.00589 19.8 5.2 18.9941 5.2 18H4.8C4.8 19.215 5.78497 20.2 7 20.2V19.8ZM5.2 18V11H4.8V18H5.2ZM5.2 11C5.2 10.0059 6.00589 9.2 7 9.2V8.8C5.78497 8.8 4.8 9.78497 4.8 11H5.2ZM7 9.2H9V8.8H7V9.2ZM8.8 5V9H9.2V5H8.8ZM10 9.2H15V8.8H10V9.2ZM9.8 5.5V9H10.2V5.5H9.8ZM10.5 4.8C10.1134 4.8 9.8 5.1134 9.8 5.5H10.2C10.2 5.33431 10.3343 5.2 10.5 5.2V4.8ZM14.5 4.8H10.5V5.2H14.5V4.8ZM15.2 5.5C15.2 5.1134 14.8866 4.8 14.5 4.8V5.2C14.6657 5.2 14.8 5.33431 14.8 5.5H15.2ZM15.2 9V5.5H14.8V9H15.2Z" fill="#C05F2C" mask="url(#path-4-outside-1_11_3720)"/>
<rect x="9" y="10" width="6" height="2" rx="1" fill="#DF6124"/>
<rect x="9" y="7" width="1" height="2" fill="#C05F2C"/>
<rect x="15" y="7" width="1" height="2" fill="#C05F2C"/>
</svg>
