<svg width="18" height="18" viewBox="0 0 18 18" fill="none" xmlns="http://www.w3.org/2000/svg">
<path fill-rule="evenodd" clip-rule="evenodd" d="M11 13C8.23858 13 6 10.9853 6 8.5C6 6.01472 8.23858 4 11 4C13.7614 4 16 6.01472 16 8.5C16 10.0742 15.1019 11.4596 13.7416 12.2638C13.8453 13.1839 14.4827 13.6342 14.9084 13.9349C14.9402 13.9574 14.9708 13.9791 15 14C13.1837 14 12.2494 13.519 11.4629 12.981C11.3105 12.9936 11.1561 13 11 13Z" fill="white"/>
<path d="M13.7416 12.2638L13.2448 12.3197C13.2227 12.124 13.3176 11.9336 13.4872 11.8334L13.7416 12.2638ZM14.9084 13.9349L15.1969 13.5265L15.1969 13.5265L14.9084 13.9349ZM15 14L15.2918 13.594C15.4681 13.7206 15.5425 13.9466 15.4759 14.1533C15.4094 14.3599 15.2171 14.5 15 14.5V14ZM11.4629 12.981L11.4218 12.4827C11.5362 12.4732 11.6504 12.5034 11.7452 12.5683L11.4629 12.981ZM6.5 8.5C6.5 10.6609 8.46386 12.5 11 12.5V13.5C8.01329 13.5 5.5 11.3097 5.5 8.5H6.5ZM11 4.5C8.46386 4.5 6.5 6.33911 6.5 8.5H5.5C5.5 5.69033 8.01329 3.5 11 3.5V4.5ZM15.5 8.5C15.5 6.33911 13.5361 4.5 11 4.5V3.5C13.9867 3.5 16.5 5.69033 16.5 8.5H15.5ZM13.4872 11.8334C14.7166 11.1065 15.5 9.8739 15.5 8.5H16.5C16.5 10.2745 15.4871 11.8127 13.9961 12.6942L13.4872 11.8334ZM14.2385 12.2078C14.3149 12.8862 14.767 13.2228 15.1969 13.5265L14.6199 14.3433C14.1984 14.0456 13.3756 13.4815 13.2448 12.3197L14.2385 12.2078ZM15.1969 13.5265C15.2283 13.5488 15.2607 13.5716 15.2918 13.594L14.7082 14.406C14.681 14.3865 14.652 14.366 14.6199 14.3433L15.1969 13.5265ZM15 14.5C13.0671 14.5 12.0361 13.9789 11.1806 13.3936L11.7452 12.5683C12.4628 13.0591 13.3004 13.5 15 13.5V14.5ZM11 12.5C11.1423 12.5 11.283 12.4941 11.4218 12.4827L11.5041 13.4793C11.338 13.493 11.1698 13.5 11 13.5V12.5Z" fill="#898A8F"/>
<path fill-rule="evenodd" clip-rule="evenodd" d="M8 12C10.7614 12 13 9.98528 13 7.5C13 5.01472 10.7614 3 8 3C5.23858 3 3 5.01472 3 7.5C3 9.07419 3.89812 10.4596 5.25835 11.2638C5.15475 12.1839 4.51731 12.6342 4.09163 12.9349C4.0598 12.9574 4.02915 12.9791 4 13C5.81627 13 6.75055 12.519 7.53707 11.981C7.6895 11.9936 7.84392 12 8 12Z" fill="white"/>
<path d="M5.25835 11.2638L5.75521 11.3197C5.77725 11.124 5.68235 10.9336 5.51282 10.8334L5.25835 11.2638ZM4.09163 12.9349L3.80314 12.5265L3.80313 12.5265L4.09163 12.9349ZM4 13L3.70823 12.594C3.53193 12.7206 3.45752 12.9466 3.52407 13.1533C3.59062 13.3599 3.7829 13.5 4 13.5V13ZM7.53707 11.981L7.57824 11.4827C7.46378 11.4732 7.34956 11.5034 7.25477 11.5683L7.53707 11.981ZM12.5 7.5C12.5 9.66089 10.5361 11.5 8 11.5V12.5C10.9867 12.5 13.5 10.3097 13.5 7.5H12.5ZM8 3.5C10.5361 3.5 12.5 5.33911 12.5 7.5H13.5C13.5 4.69033 10.9867 2.5 8 2.5V3.5ZM3.5 7.5C3.5 5.33911 5.46386 3.5 8 3.5V2.5C5.01329 2.5 2.5 4.69033 2.5 7.5H3.5ZM5.51282 10.8334C4.28338 10.1065 3.5 8.8739 3.5 7.5H2.5C2.5 9.27448 3.51286 10.8127 5.00389 11.6942L5.51282 10.8334ZM4.76149 11.2078C4.6851 11.8862 4.23303 12.2228 3.80314 12.5265L4.38013 13.3433C4.80158 13.0456 5.62439 12.4815 5.75521 11.3197L4.76149 11.2078ZM3.80313 12.5265C3.77165 12.5488 3.73931 12.5716 3.70823 12.594L4.29177 13.406C4.319 13.3865 4.34795 13.366 4.38013 13.3433L3.80313 12.5265ZM4 13.5C5.93292 13.5 6.96387 12.9789 7.81937 12.3936L7.25477 11.5683C6.53723 12.0591 5.69962 12.5 4 12.5V13.5ZM8 11.5C7.85767 11.5 7.71699 11.4941 7.57824 11.4827L7.4959 12.4793C7.66202 12.493 7.83017 12.5 8 12.5V11.5Z" fill="#898A8F"/>
</svg>
