<svg width="53" height="53" viewBox="0 0 53 53" fill="none" xmlns="http://www.w3.org/2000/svg">
<path d="M53 26.5C53 41.1355 53 53 26.5 53C-1.90735e-06 53 0 41.1355 0 26.5C0 11.8645 -1.90735e-06 0 25 0C52.9993 0 53 11.8645 53 26.5Z" fill="#FDE8B1"/>
<path d="M23.1923 13H20.5C20.2239 13 20 12.7761 20 12.5V10C20 8.89543 20.8954 8 22 8H30C31.1046 8 32 8.89543 32 10V12.5C32 12.7761 31.7761 13 31.5 13H28.3462C28.07 13 27.8462 12.7761 27.8462 12.5V10.7727C27.8462 10.4966 27.6223 10.2727 27.3462 10.2727H24.1923C23.9162 10.2727 23.6923 10.4966 23.6923 10.7727V12.5C23.6923 12.7761 23.4685 13 23.1923 13Z" fill="#FF930E"/>
<path d="M15 38H20V40C20 41.1046 19.1046 42 18 42H17C15.8954 42 15 41.1046 15 40V38Z" fill="#8D795E"/>
<path d="M33 38H38V40C38 41.1046 37.1046 42 36 42H35C33.8954 42 33 41.1046 33 40V38Z" fill="#8D795E"/>
<circle cx="20" cy="19" r="6" fill="#DF5E25"/>
<circle cx="31" cy="21" r="6" fill="#F8C33F"/>
<rect x="20" y="13" width="3" height="6" fill="white"/>
<rect x="29" y="13" width="3" height="6" fill="white"/>
<rect x="12" y="18" width="28" height="21" rx="3" fill="#F27130"/>
<rect x="21" y="22" width="10" height="4" rx="1" fill="#D3541F"/>
</svg>
