<svg width="18" height="19" viewBox="0 0 18 19" fill="none" xmlns="http://www.w3.org/2000/svg">
<path d="M5 16.5C5 14.5 6.5 10.5 9 10.5C8.33333 10.1667 7 8.9 7 6.5C7 3.5 9.5 2.5 11 2.5C12.5 2.5 15 4 15 6.5C15 8.5 13.6667 10 13 10.5C15 10.5 17 12.9 17 16.5" stroke="#212025" stroke-linecap="round" stroke-linejoin="round"/>
<path d="M1 16.5C1 14.5 2.2 10.5 4.81818 10.5C4.09091 10.1667 2.63636 8.9 2.63636 6.5C2.63636 3.5 5.36364 2.5 7 2.5" stroke="#212025" stroke-linecap="round" stroke-linejoin="round"/>
</svg>
