<svg width="18" height="18" viewBox="0 0 18 18" fill="none" xmlns="http://www.w3.org/2000/svg">
<path d="M12.7026 13.0929L12.819 13.5792C12.5745 13.6377 12.3245 13.5055 12.2352 13.2705C12.1459 13.0355 12.245 12.7707 12.4667 12.6521L12.7026 13.0929ZM13.0908 13L12.9744 12.5137C13.1233 12.4781 13.2803 12.5126 13.4005 12.6075C13.5206 12.7023 13.5908 12.8469 13.5908 13H13.0908ZM14.8625 15.9024L14.5741 16.3107H14.5741L14.8625 15.9024ZM15 16L15.2918 15.594C15.4681 15.7206 15.5425 15.9466 15.4759 16.1533C15.4094 16.3599 15.2171 16.5 15 16.5V16ZM9.1012 14.0517L8.80913 14.4576L8.80912 14.4576L9.1012 14.0517ZM9.02921 13.9999L9.02745 13.5C9.13281 13.4996 9.2356 13.5325 9.32114 13.594L9.02921 13.9999ZM2.5 8C2.5 10.968 5.33506 13.5 9 13.5V14.5C4.93295 14.5 1.5 11.6594 1.5 8H2.5ZM9 2.5C5.33506 2.5 2.5 5.03197 2.5 8H1.5C1.5 4.34062 4.93295 1.5 9 1.5V2.5ZM15.5 8C15.5 5.03197 12.6649 2.5 9 2.5V1.5C13.067 1.5 16.5 4.34062 16.5 8H15.5ZM12.4667 12.6521C14.3159 11.6622 15.5 9.93059 15.5 8H16.5C16.5 10.3662 15.0495 12.4038 12.9386 13.5337L12.4667 12.6521ZM12.5862 12.6066L12.9744 12.5137L13.2071 13.4863L12.819 13.5792L12.5862 12.6066ZM13.5908 13C13.5908 14.3759 14.4556 15.0027 15.151 15.494L14.5741 16.3107C13.876 15.8176 12.5908 14.9255 12.5908 13H13.5908ZM15.151 15.494C15.1984 15.5275 15.2461 15.5612 15.2918 15.594L14.7082 16.406C14.6664 16.376 14.6221 16.3447 14.5741 16.3107L15.151 15.494ZM15 16.5C13.3496 16.5 12.1428 16.2435 11.1656 15.8487C10.1936 15.4561 9.47246 14.935 8.80913 14.4576L9.39328 13.6459C10.061 14.1265 10.6934 14.5795 11.5401 14.9215C12.3816 15.2614 13.4586 15.5 15 15.5V16.5ZM8.80912 14.4576C8.78511 14.4403 8.76119 14.4231 8.73729 14.4059L9.32114 13.594C9.34522 13.6113 9.36928 13.6287 9.39328 13.6459L8.80912 14.4576ZM9 13.5C9.00915 13.5 9.0183 13.5 9.02745 13.5L9.03098 14.4999C9.02066 14.5 9.01033 14.5 9 14.5V13.5Z" fill="#212025"/>
</svg>
