<svg width="23" height="23" viewBox="0 0 23 23" fill="none" xmlns="http://www.w3.org/2000/svg">
<circle cx="11.5" cy="11.5" r="11" fill="#FFEADD" stroke="white"/>
<path d="M7 17H9V19.5C9 19.7761 8.77614 20 8.5 20H7.5C7.22386 20 7 19.7761 7 19.5V17Z" fill="black"/>
<path d="M14 17H16V19.5C16 19.7761 15.7761 20 15.5 20H14.5C14.2239 20 14 19.7761 14 19.5V17Z" fill="black"/>
<mask id="path-4-outside-1_11_3682" maskUnits="userSpaceOnUse" x="4" y="3" width="15" height="16" fill="black">
<rect fill="white" x="4" y="3" width="15" height="16"/>
<path fill-rule="evenodd" clip-rule="evenodd" d="M9 5C9 4.44772 9.44772 4 10 4H14C14.5523 4 15 4.44772 15 5V9H16C17.1046 9 18 9.89543 18 11V16C18 17.1046 17.1046 18 16 18H7C5.89543 18 5 17.1046 5 16V11C5 9.89543 5.89543 9 7 9H9V5ZM14 9H10V5.5C10 5.22386 10.2239 5 10.5 5H13.5C13.7761 5 14 5.22386 14 5.5V9Z"/>
</mask>
<path fill-rule="evenodd" clip-rule="evenodd" d="M9 5C9 4.44772 9.44772 4 10 4H14C14.5523 4 15 4.44772 15 5V9H16C17.1046 9 18 9.89543 18 11V16C18 17.1046 17.1046 18 16 18H7C5.89543 18 5 17.1046 5 16V11C5 9.89543 5.89543 9 7 9H9V5ZM14 9H10V5.5C10 5.22386 10.2239 5 10.5 5H13.5C13.7761 5 14 5.22386 14 5.5V9Z" fill="#FD8725"/>
<path d="M15 9H14.8V9.2H15V9ZM9 9V9.2H9.2V9H9ZM10 9H9.8V9.2H10V9ZM14 9V9.2H14.2V9H14ZM10 3.8C9.33726 3.8 8.8 4.33726 8.8 5H9.2C9.2 4.55817 9.55817 4.2 10 4.2V3.8ZM14 3.8H10V4.2H14V3.8ZM15.2 5C15.2 4.33726 14.6627 3.8 14 3.8V4.2C14.4418 4.2 14.8 4.55817 14.8 5H15.2ZM15.2 9V5H14.8V9H15.2ZM15 9.2H16V8.8H15V9.2ZM16 9.2C16.9941 9.2 17.8 10.0059 17.8 11H18.2C18.2 9.78497 17.215 8.8 16 8.8V9.2ZM17.8 11V16H18.2V11H17.8ZM17.8 16C17.8 16.9941 16.9941 17.8 16 17.8V18.2C17.215 18.2 18.2 17.215 18.2 16H17.8ZM16 17.8H7V18.2H16V17.8ZM7 17.8C6.00589 17.8 5.2 16.9941 5.2 16H4.8C4.8 17.215 5.78497 18.2 7 18.2V17.8ZM5.2 16V11H4.8V16H5.2ZM5.2 11C5.2 10.0059 6.00589 9.2 7 9.2V8.8C5.78497 8.8 4.8 9.78497 4.8 11H5.2ZM7 9.2H9V8.8H7V9.2ZM8.8 5V9H9.2V5H8.8ZM10 9.2H14V8.8H10V9.2ZM9.8 5.5V9H10.2V5.5H9.8ZM10.5 4.8C10.1134 4.8 9.8 5.1134 9.8 5.5H10.2C10.2 5.33431 10.3343 5.2 10.5 5.2V4.8ZM13.5 4.8H10.5V5.2H13.5V4.8ZM14.2 5.5C14.2 5.1134 13.8866 4.8 13.5 4.8V5.2C13.6657 5.2 13.8 5.33431 13.8 5.5H14.2ZM14.2 9V5.5H13.8V9H14.2Z" fill="#C05F2C" mask="url(#path-4-outside-1_11_3682)"/>
<rect x="9" y="10" width="6" height="2" rx="1" fill="#DF6124"/>
<rect x="9" y="7" width="1" height="2" fill="#C05F2C"/>
<path d="M14 7H15V9H14V7Z" fill="#C05F2C"/>
</svg>
